<svg xmlns="http://www.w3.org/2000/svg" viewBox="0 0 512 512">
  <defs>
    <linearGradient id="grad" x1="0%" y1="0%" x2="100%" y2="100%">
      <stop offset="0%" stop-color="#a855f7"></stop>
      <stop offset="100%" stop-color="#7c3aed"></stop>
    </linearGradient>
  </defs>

  <g fill="url(#grad)">
    <path d="M256 32c-44.2 0-86.4 12.9-122.4 37.3l33.7 33.7c25.4-14.7 54.9-22.5 88.7-22.5 93.9 0 170 76.1 170 170 0 33.8-7.8 63.3-22.5 88.7l33.7 33.7C467.1 342.4 480 300.2 480 256 480 132.3 379.7 32 256 32z"></path>

    <path d="M256 480c44.2 0 86.4-12.9 122.4-37.3l-33.7-33.7c-25.4 14.7-54.9 22.5-88.7 22.5-93.9 0-170-76.1-170-170 0-33.8 7.8-63.3 22.5-88.7l-33.7-33.7C44.9 169.6 32 211.8 32 256c0 123.7 100.3 224 224 224z"></path>

    <path d="M394.7 117.3l-14.6 54.4 54.4-14.6z"></path>
    <path d="M117.3 394.7l54.4-14.6-14.6 54.4z"></path>
  </g>
</svg>
